<svg xmlns="http://www.w3.org/2000/svg"  viewBox="0 0 48 48" width="144px" height="144px"><path d="M 20.5 3 C 18.203405 3 16.305701 4.7666235 16.050781 7 L 12.5 7 C 10.015 7 8 9.015 8 11.5 L 8 38.5 C 8 40.985 10.015 43 12.5 43 L 35.5 43 C 37.985 43 40 40.985 40 38.5 L 40 11.5 C 40 9.015 37.985 7 35.5 7 L 31.949219 7 C 31.694299 4.7666235 29.796595 3 27.5 3 L 20.5 3 z M 20.5 6 L 27.5 6 C 28.346499 6 29 6.6535009 29 7.5 C 29 8.3464991 28.346499 9 27.5 9 L 20.5 9 C 19.653501 9 19 8.3464991 19 7.5 C 19 6.6535009 19.653501 6 20.5 6 z M 24 17 C 26.209 17 28 18.791 28 21 C 28 23.209 26.209 25 24 25 C 21.791 25 20 23.209 20 21 C 20 18.791 21.791 17 24 17 z M 17.8125 28 L 30.189453 28 C 31.187453 28 32 28.8125 32 29.8125 L 32 30.230469 C 32 32.153469 29.457 35 24 35 C 18.543 35 16 32.153469 16 30.230469 L 16 29.8125 C 16 28.8125 16.8125 28 17.8125 28 z"/></svg>